<mxfile host="Electron" agent="Mozilla/5.0 (Windows NT 10.0; Win64; x64) AppleWebKit/537.36 (KHTML, like Gecko) draw.io/25.0.2 Chrome/128.0.6613.186 Electron/32.2.5 Safari/537.36" version="25.0.2" pages="2">
  <diagram name="Администратор" id="Up2qKT-gcyaJhnOLHu0_">
    <mxGraphModel dx="1434" dy="836" grid="1" gridSize="10" guides="1" tooltips="1" connect="1" arrows="1" fold="1" page="1" pageScale="1" pageWidth="1169" pageHeight="827" math="0" shadow="0">
      <root>
        <mxCell id="0" />
        <mxCell id="1" parent="0" />
        <mxCell id="XpILQ-toadjvkesOaYzl-1" value="Администратор" style="rounded=0;whiteSpace=wrap;html=1;fillColor=#f8cecc;strokeColor=#b85450;" parent="1" vertex="1">
          <mxGeometry x="40" y="40" width="120" height="40" as="geometry" />
        </mxCell>
        <mxCell id="XpILQ-toadjvkesOaYzl-6" style="edgeStyle=orthogonalEdgeStyle;rounded=0;orthogonalLoop=1;jettySize=auto;html=1;" parent="1" source="XpILQ-toadjvkesOaYzl-4" target="XpILQ-toadjvkesOaYzl-24" edge="1">
          <mxGeometry relative="1" as="geometry">
            <mxPoint x="260" y="160" as="targetPoint" />
          </mxGeometry>
        </mxCell>
        <mxCell id="XpILQ-toadjvkesOaYzl-4" value="Вход" style="rounded=1;whiteSpace=wrap;html=1;fillColor=#dae8fc;strokeColor=#6c8ebf;" parent="1" vertex="1">
          <mxGeometry x="200" y="30" width="120" height="60" as="geometry" />
        </mxCell>
        <mxCell id="XpILQ-toadjvkesOaYzl-10" style="edgeStyle=orthogonalEdgeStyle;rounded=0;orthogonalLoop=1;jettySize=auto;html=1;" parent="1" source="XpILQ-toadjvkesOaYzl-5" target="XpILQ-toadjvkesOaYzl-9" edge="1">
          <mxGeometry relative="1" as="geometry" />
        </mxCell>
        <mxCell id="XpILQ-toadjvkesOaYzl-11" style="edgeStyle=orthogonalEdgeStyle;rounded=0;orthogonalLoop=1;jettySize=auto;html=1;" parent="1" source="XpILQ-toadjvkesOaYzl-5" target="XpILQ-toadjvkesOaYzl-7" edge="1">
          <mxGeometry relative="1" as="geometry" />
        </mxCell>
        <mxCell id="XpILQ-toadjvkesOaYzl-12" style="edgeStyle=orthogonalEdgeStyle;rounded=0;orthogonalLoop=1;jettySize=auto;html=1;" parent="1" source="XpILQ-toadjvkesOaYzl-5" target="XpILQ-toadjvkesOaYzl-8" edge="1">
          <mxGeometry relative="1" as="geometry" />
        </mxCell>
        <mxCell id="XpILQ-toadjvkesOaYzl-14" style="edgeStyle=orthogonalEdgeStyle;rounded=0;orthogonalLoop=1;jettySize=auto;html=1;" parent="1" source="XpILQ-toadjvkesOaYzl-5" target="XpILQ-toadjvkesOaYzl-13" edge="1">
          <mxGeometry relative="1" as="geometry" />
        </mxCell>
        <mxCell id="XpILQ-toadjvkesOaYzl-5" value="Просмотр контента пользователя" style="rounded=1;whiteSpace=wrap;html=1;fillColor=#dae8fc;strokeColor=#6c8ebf;" parent="1" vertex="1">
          <mxGeometry x="200" y="230" width="120" height="60" as="geometry" />
        </mxCell>
        <mxCell id="XpILQ-toadjvkesOaYzl-7" value="Заблокировать пользователя" style="rounded=1;whiteSpace=wrap;html=1;fillColor=#dae8fc;strokeColor=#6c8ebf;" parent="1" vertex="1">
          <mxGeometry x="200" y="330" width="120" height="60" as="geometry" />
        </mxCell>
        <mxCell id="XpILQ-toadjvkesOaYzl-8" value="Выдать предупреждение" style="rounded=1;whiteSpace=wrap;html=1;fillColor=#dae8fc;strokeColor=#6c8ebf;" parent="1" vertex="1">
          <mxGeometry x="360" y="330" width="120" height="60" as="geometry" />
        </mxCell>
        <mxCell id="XpILQ-toadjvkesOaYzl-9" value="Удалить контент" style="rounded=1;whiteSpace=wrap;html=1;fillColor=#dae8fc;strokeColor=#6c8ebf;" parent="1" vertex="1">
          <mxGeometry x="40" y="330" width="120" height="60" as="geometry" />
        </mxCell>
        <mxCell id="XpILQ-toadjvkesOaYzl-13" value="Отклонить жалобу" style="rounded=1;whiteSpace=wrap;html=1;fillColor=#dae8fc;strokeColor=#6c8ebf;" parent="1" vertex="1">
          <mxGeometry x="520" y="330" width="120" height="60" as="geometry" />
        </mxCell>
        <mxCell id="XpILQ-toadjvkesOaYzl-24" value="Просмотр жалоб" style="rounded=1;whiteSpace=wrap;html=1;fillColor=#dae8fc;strokeColor=#6c8ebf;" parent="1" vertex="1">
          <mxGeometry x="200" y="130" width="120" height="60" as="geometry" />
        </mxCell>
        <mxCell id="XpILQ-toadjvkesOaYzl-25" style="edgeStyle=orthogonalEdgeStyle;rounded=0;orthogonalLoop=1;jettySize=auto;html=1;" parent="1" source="XpILQ-toadjvkesOaYzl-24" target="XpILQ-toadjvkesOaYzl-5" edge="1">
          <mxGeometry relative="1" as="geometry">
            <mxPoint x="270" y="100" as="sourcePoint" />
            <mxPoint x="270" y="140" as="targetPoint" />
          </mxGeometry>
        </mxCell>
        <mxCell id="IarofB_0z11QLn69_rKS-2" value="Настройка сервера" style="rounded=1;whiteSpace=wrap;html=1;fillColor=#dae8fc;strokeColor=#6c8ebf;" parent="1" vertex="1">
          <mxGeometry x="370" y="30" width="120" height="60" as="geometry" />
        </mxCell>
        <mxCell id="4FuDMZfpj7LmLOgb5rA3-1" style="edgeStyle=orthogonalEdgeStyle;rounded=0;orthogonalLoop=1;jettySize=auto;html=1;" edge="1" parent="1" source="XpILQ-toadjvkesOaYzl-4" target="IarofB_0z11QLn69_rKS-2">
          <mxGeometry relative="1" as="geometry">
            <mxPoint x="270" y="140" as="targetPoint" />
            <mxPoint x="270" y="100" as="sourcePoint" />
          </mxGeometry>
        </mxCell>
      </root>
    </mxGraphModel>
  </diagram>
  <diagram id="iEV5FRQ3jEhFH_7zMVI6" name="Пользователь">
    <mxGraphModel dx="1003" dy="771" grid="1" gridSize="10" guides="1" tooltips="1" connect="1" arrows="1" fold="1" page="1" pageScale="1" pageWidth="827" pageHeight="1169" math="0" shadow="0">
      <root>
        <mxCell id="0" />
        <mxCell id="1" parent="0" />
        <mxCell id="evped9sd5UIH206Ebyr4-1" value="Пользователь" style="rounded=0;whiteSpace=wrap;html=1;fillColor=#f8cecc;strokeColor=#b85450;" vertex="1" parent="1">
          <mxGeometry x="40" y="40" width="120" height="40" as="geometry" />
        </mxCell>
        <mxCell id="evped9sd5UIH206Ebyr4-2" style="edgeStyle=orthogonalEdgeStyle;rounded=0;orthogonalLoop=1;jettySize=auto;html=1;" edge="1" parent="1" source="evped9sd5UIH206Ebyr4-3" target="evped9sd5UIH206Ebyr4-13">
          <mxGeometry relative="1" as="geometry">
            <mxPoint x="260" y="260" as="targetPoint" />
          </mxGeometry>
        </mxCell>
        <mxCell id="evped9sd5UIH206Ebyr4-22" style="edgeStyle=orthogonalEdgeStyle;rounded=0;orthogonalLoop=1;jettySize=auto;html=1;" edge="1" parent="1" source="evped9sd5UIH206Ebyr4-3" target="evped9sd5UIH206Ebyr4-19">
          <mxGeometry relative="1" as="geometry" />
        </mxCell>
        <mxCell id="evped9sd5UIH206Ebyr4-32" style="edgeStyle=orthogonalEdgeStyle;rounded=0;orthogonalLoop=1;jettySize=auto;html=1;" edge="1" parent="1" source="evped9sd5UIH206Ebyr4-3" target="evped9sd5UIH206Ebyr4-31">
          <mxGeometry relative="1" as="geometry" />
        </mxCell>
        <mxCell id="evped9sd5UIH206Ebyr4-37" style="edgeStyle=orthogonalEdgeStyle;rounded=0;orthogonalLoop=1;jettySize=auto;html=1;" edge="1" parent="1" source="evped9sd5UIH206Ebyr4-3" target="evped9sd5UIH206Ebyr4-35">
          <mxGeometry relative="1" as="geometry" />
        </mxCell>
        <mxCell id="evped9sd5UIH206Ebyr4-3" value="Авторизация" style="rounded=1;whiteSpace=wrap;html=1;fillColor=#dae8fc;strokeColor=#6c8ebf;" vertex="1" parent="1">
          <mxGeometry x="200" y="130" width="120" height="60" as="geometry" />
        </mxCell>
        <mxCell id="evped9sd5UIH206Ebyr4-18" style="edgeStyle=orthogonalEdgeStyle;rounded=0;orthogonalLoop=1;jettySize=auto;html=1;" edge="1" parent="1" source="evped9sd5UIH206Ebyr4-13" target="evped9sd5UIH206Ebyr4-17">
          <mxGeometry relative="1" as="geometry" />
        </mxCell>
        <mxCell id="evped9sd5UIH206Ebyr4-34" style="edgeStyle=orthogonalEdgeStyle;rounded=0;orthogonalLoop=1;jettySize=auto;html=1;" edge="1" parent="1" source="evped9sd5UIH206Ebyr4-13" target="evped9sd5UIH206Ebyr4-33">
          <mxGeometry relative="1" as="geometry" />
        </mxCell>
        <mxCell id="evped9sd5UIH206Ebyr4-40" style="rounded=0;orthogonalLoop=1;jettySize=auto;html=1;" edge="1" parent="1" source="evped9sd5UIH206Ebyr4-13" target="evped9sd5UIH206Ebyr4-39">
          <mxGeometry relative="1" as="geometry" />
        </mxCell>
        <mxCell id="evped9sd5UIH206Ebyr4-13" value="Просмотр доступных альбомов" style="rounded=1;whiteSpace=wrap;html=1;fillColor=#dae8fc;strokeColor=#6c8ebf;" vertex="1" parent="1">
          <mxGeometry x="200" y="230" width="120" height="60" as="geometry" />
        </mxCell>
        <mxCell id="evped9sd5UIH206Ebyr4-16" style="edgeStyle=orthogonalEdgeStyle;rounded=0;orthogonalLoop=1;jettySize=auto;html=1;" edge="1" parent="1" source="evped9sd5UIH206Ebyr4-15" target="evped9sd5UIH206Ebyr4-3">
          <mxGeometry relative="1" as="geometry" />
        </mxCell>
        <mxCell id="evped9sd5UIH206Ebyr4-15" value="Регистрация" style="rounded=1;whiteSpace=wrap;html=1;fillColor=#dae8fc;strokeColor=#6c8ebf;" vertex="1" parent="1">
          <mxGeometry x="200" y="30" width="120" height="60" as="geometry" />
        </mxCell>
        <mxCell id="evped9sd5UIH206Ebyr4-30" style="edgeStyle=orthogonalEdgeStyle;rounded=0;orthogonalLoop=1;jettySize=auto;html=1;" edge="1" parent="1" source="evped9sd5UIH206Ebyr4-17" target="evped9sd5UIH206Ebyr4-23">
          <mxGeometry relative="1" as="geometry" />
        </mxCell>
        <mxCell id="evped9sd5UIH206Ebyr4-17" value="Просмотр картинок альбома" style="rounded=1;whiteSpace=wrap;html=1;fillColor=#dae8fc;strokeColor=#6c8ebf;" vertex="1" parent="1">
          <mxGeometry x="200" y="330" width="120" height="60" as="geometry" />
        </mxCell>
        <mxCell id="evped9sd5UIH206Ebyr4-21" style="edgeStyle=orthogonalEdgeStyle;rounded=0;orthogonalLoop=1;jettySize=auto;html=1;" edge="1" parent="1" source="evped9sd5UIH206Ebyr4-19" target="evped9sd5UIH206Ebyr4-20">
          <mxGeometry relative="1" as="geometry" />
        </mxCell>
        <mxCell id="evped9sd5UIH206Ebyr4-19" value="Просмотр тегов" style="rounded=1;whiteSpace=wrap;html=1;fillColor=#dae8fc;strokeColor=#6c8ebf;" vertex="1" parent="1">
          <mxGeometry x="40" y="230" width="120" height="60" as="geometry" />
        </mxCell>
        <mxCell id="evped9sd5UIH206Ebyr4-20" value="Создание тегов" style="rounded=1;whiteSpace=wrap;html=1;fillColor=#dae8fc;strokeColor=#6c8ebf;" vertex="1" parent="1">
          <mxGeometry x="40" y="330" width="120" height="60" as="geometry" />
        </mxCell>
        <mxCell id="evped9sd5UIH206Ebyr4-27" style="edgeStyle=orthogonalEdgeStyle;rounded=0;orthogonalLoop=1;jettySize=auto;html=1;" edge="1" parent="1" source="evped9sd5UIH206Ebyr4-23" target="evped9sd5UIH206Ebyr4-25">
          <mxGeometry relative="1" as="geometry" />
        </mxCell>
        <mxCell id="evped9sd5UIH206Ebyr4-28" style="edgeStyle=orthogonalEdgeStyle;rounded=0;orthogonalLoop=1;jettySize=auto;html=1;" edge="1" parent="1" source="evped9sd5UIH206Ebyr4-23" target="evped9sd5UIH206Ebyr4-24">
          <mxGeometry relative="1" as="geometry" />
        </mxCell>
        <mxCell id="evped9sd5UIH206Ebyr4-29" style="edgeStyle=orthogonalEdgeStyle;rounded=0;orthogonalLoop=1;jettySize=auto;html=1;" edge="1" parent="1" source="evped9sd5UIH206Ebyr4-23" target="evped9sd5UIH206Ebyr4-26">
          <mxGeometry relative="1" as="geometry" />
        </mxCell>
        <mxCell id="evped9sd5UIH206Ebyr4-41" style="rounded=0;orthogonalLoop=1;jettySize=auto;html=1;" edge="1" parent="1" source="evped9sd5UIH206Ebyr4-23" target="evped9sd5UIH206Ebyr4-39">
          <mxGeometry relative="1" as="geometry" />
        </mxCell>
        <mxCell id="evped9sd5UIH206Ebyr4-23" value="Просмотр конкретной картинки&amp;nbsp;" style="rounded=1;whiteSpace=wrap;html=1;fillColor=#dae8fc;strokeColor=#6c8ebf;" vertex="1" parent="1">
          <mxGeometry x="200" y="430" width="120" height="60" as="geometry" />
        </mxCell>
        <mxCell id="evped9sd5UIH206Ebyr4-24" value="Добавление тегов" style="rounded=1;whiteSpace=wrap;html=1;fillColor=#dae8fc;strokeColor=#6c8ebf;" vertex="1" parent="1">
          <mxGeometry x="360" y="430" width="120" height="60" as="geometry" />
        </mxCell>
        <mxCell id="evped9sd5UIH206Ebyr4-25" value="Скачивание" style="rounded=1;whiteSpace=wrap;html=1;fillColor=#dae8fc;strokeColor=#6c8ebf;" vertex="1" parent="1">
          <mxGeometry x="40" y="430" width="120" height="60" as="geometry" />
        </mxCell>
        <mxCell id="evped9sd5UIH206Ebyr4-26" value="Получение превью" style="rounded=1;whiteSpace=wrap;html=1;fillColor=#dae8fc;strokeColor=#6c8ebf;" vertex="1" parent="1">
          <mxGeometry x="200" y="530" width="120" height="60" as="geometry" />
        </mxCell>
        <mxCell id="evped9sd5UIH206Ebyr4-31" value="Просмотр доступов и приглашений" style="rounded=1;whiteSpace=wrap;html=1;fillColor=#dae8fc;strokeColor=#6c8ebf;" vertex="1" parent="1">
          <mxGeometry x="520" y="230" width="120" height="60" as="geometry" />
        </mxCell>
        <mxCell id="evped9sd5UIH206Ebyr4-33" value="Создание доступа" style="rounded=1;whiteSpace=wrap;html=1;fillColor=#dae8fc;strokeColor=#6c8ebf;" vertex="1" parent="1">
          <mxGeometry x="360" y="230" width="120" height="60" as="geometry" />
        </mxCell>
        <mxCell id="evped9sd5UIH206Ebyr4-38" style="edgeStyle=orthogonalEdgeStyle;rounded=0;orthogonalLoop=1;jettySize=auto;html=1;" edge="1" parent="1" source="evped9sd5UIH206Ebyr4-35" target="evped9sd5UIH206Ebyr4-36">
          <mxGeometry relative="1" as="geometry" />
        </mxCell>
        <mxCell id="evped9sd5UIH206Ebyr4-35" value="Просмотр себя, количество предпуреждений" style="rounded=1;whiteSpace=wrap;html=1;fillColor=#dae8fc;strokeColor=#6c8ebf;" vertex="1" parent="1">
          <mxGeometry x="680" y="230" width="120" height="60" as="geometry" />
        </mxCell>
        <mxCell id="evped9sd5UIH206Ebyr4-36" value="Редактирования себя" style="rounded=1;whiteSpace=wrap;html=1;fillColor=#dae8fc;strokeColor=#6c8ebf;" vertex="1" parent="1">
          <mxGeometry x="680" y="330" width="120" height="60" as="geometry" />
        </mxCell>
        <mxCell id="evped9sd5UIH206Ebyr4-39" value="Создание жалобы (на чужое)" style="rounded=1;whiteSpace=wrap;html=1;fillColor=#dae8fc;strokeColor=#6c8ebf;" vertex="1" parent="1">
          <mxGeometry x="360" y="330" width="120" height="60" as="geometry" />
        </mxCell>
      </root>
    </mxGraphModel>
  </diagram>
</mxfile>
